<?xml version="1.0" encoding="utf-8"?>
<!-- Generator: Adobe Illustrator 16.0.0, SVG Export Plug-In . SVG Version: 6.00 Build 0)  -->
<!DOCTYPE svg PUBLIC "-//W3C//DTD SVG 1.1//EN" "http://www.w3.org/Graphics/SVG/1.1/DTD/svg11.dtd">
<svg version="1.1" xmlns="http://www.w3.org/2000/svg" xmlns:xlink="http://www.w3.org/1999/xlink" x="0px" y="0px" width="100px"
	 height="100px" viewBox="0 0 100 100" enable-background="new 0 0 100 100" xml:space="preserve">
<g id="Layer_1" display="none">
</g>
<g id="Layer_2">
	<path fill="#FFFFFF" d="M88,0H12C5.373,0,0,5.373,0,12v76c0,6.627,5.373,12,12,12h76c6.627,0,12-5.373,12-12V12
		C100,5.373,94.627,0,88,0z M50.5,85.902c-10.001,0-18.001-2.301-23.802-4.801c-1.5-0.6-2.8-2.3-2.8-4.1c0-2.2,1.6-4.2,4.101-4.2
		c0.6,0,1.199,0.1,1.899,0.399c4.501,2,11.101,4.101,19.701,4.101c9.9,0,17.501-2.8,17.501-11.501
		c0-14.801-42.502-6.6-42.502-31.202c0-11.101,9-20.501,25.901-20.501c7.8,0,14.501,1.3,19.901,3.301c1.399,0.5,2.8,1.6,2.8,4
		c0,2-1.5,4.2-4,4.2c-0.5,0-1.101-0.2-1.601-0.4c-4.6-1.6-10-2.7-16.101-2.7c-10.101,0-17.801,3.9-17.801,11.401
		c0,17.301,42.402,6.1,42.402,32.502C76.102,77.702,66.001,85.902,50.5,85.902z"/>
</g>
</svg>
